<svg t="1659331181427" class="icon" viewBox="0 0 1024 1024" version="1.1" xmlns="http://www.w3.org/2000/svg" p-id="2235" width="200" height="200"><path d="M865.24 210.043l-0.005-25.768-25.68-2.131c-163.422-13.563-313.236-89.85-314.718-90.612L512 84.91l-12.838 6.623c-1.489 0.769-150.87 77.015-314.717 90.612l-25.68 2.131-0.005 25.768c-0.031 164.221 0 353.89 0 353.885 0 42.448 9.577 87.979 27.694 131.673 17.67 42.613 43.491 83.614 74.67 118.571 32.91 36.896 70.456 66.199 111.597 87.096 44.829 22.77 91.689 34.314 139.278 34.314s94.449-11.545 139.278-34.314c41.141-20.896 78.688-50.199 111.597-87.096 31.18-34.957 57-75.958 74.671-118.571 18.117-43.693 27.694-89.225 27.694-131.668 0.001 0 0.032-189.67 0.001-353.891z m-56 353.886c0 142.973-132.588 315.654-297.24 315.654-164.652 0-297.24-172.682-297.24-315.659 0 0-0.028-170.806-0.004-328.579 81.834-9.797 157.425-32.708 208.375-51.108 41.201-14.879 72.454-28.89 88.87-36.66 16.416 7.77 47.669 21.78 88.87 36.66 50.949 18.4 126.54 41.311 208.374 51.108 0.023 157.773-0.005 328.578-0.005 328.584z" p-id="2236" fill="#899ba4"></path><path d="M652.04 387.312L462.055 577.297l-90.1-90.05c-10.937-10.932-28.667-10.927-39.598 0.011-10.932 10.938-10.927 28.666 0.011 39.598l129.697 129.627L691.638 426.91c10.935-10.935 10.935-28.663 0-39.598-10.934-10.935-28.664-10.935-39.598 0z" p-id="2237" fill="#899ba4"></path></svg>