<svg t="1659456516270" class="icon" viewBox="0 0 1024 1024" version="1.1" xmlns="http://www.w3.org/2000/svg" p-id="1919" width="64" height="64"><path d="M536.97 960h-49.93c-43.6 0-79.06-35.46-79.06-79.06v-75.58c0-14.55 11.8-26.35 26.35-26.35h155.34c14.55 0 26.35 11.8 26.35 26.35v75.58c0.01 43.6-35.46 79.06-79.05 79.06z m-76.28-128.29v49.23c0 14.53 11.83 26.35 26.35 26.35h49.93c14.53 0 26.35-11.83 26.35-26.35v-49.23H460.69z" fill="#333333" p-id="1920"></path><path d="M589.67 831.71H434.33c-13.29 0-24.5-9.9-26.15-23.08l-1.47-11.74c-5.47-43.71-22.76-59.02-57.21-89.55-6.76-5.97-13.92-12.33-21.46-19.33-63.19-58.64-94.14-141.72-84.91-227.94 13.36-124.73 113.52-225.26 238.15-239.04 76.94-8.47 153.88 16.01 211.09 67.23 57.25 51.28 90.09 124.73 90.09 201.53 0 76.38-32.56 149.57-89.31 200.79l-11.16 10c-40.71 36.36-59.29 52.96-65.46 102.3l-0.72 5.75c-1.65 13.2-12.86 23.08-26.14 23.08zM457.3 779h109.75c11.39-56.57 40.65-82.71 79.83-117.71l10.96-9.84c45.71-41.23 71.92-100.15 71.92-161.64 0-61.83-26.44-120.98-72.55-162.26-46.71-41.83-107.06-61.11-170.14-54.11-100.24 11.08-180.8 91.94-191.55 192.26-7.42 69.52 17.49 136.47 68.37 183.7 7.23 6.7 14.09 12.78 20.56 18.5 34.93 30.93 62.97 55.77 72.85 111.1zM201.31 516.16h-88.77c-14.55 0-26.35-11.8-26.35-26.35s11.8-26.35 26.35-26.35h88.77c14.55 0 26.35 11.8 26.35 26.35s-11.79 26.35-26.35 26.35z" fill="#333333" p-id="1921"></path><path d="M292.31 296.48c-6.74 0-13.49-2.57-18.63-7.72l-62.77-62.77c-10.29-10.29-10.29-26.97 0-37.26s26.97-10.29 37.26 0l62.77 62.77c10.29 10.29 10.29 26.97 0 37.26-5.14 5.15-11.88 7.72-18.63 7.72z" fill="#333333" p-id="1922"></path><path d="M292.31 296.48c-6.74 0-13.49-2.57-18.63-7.72l-62.77-62.77c-10.29-10.29-10.29-26.97 0-37.26s26.97-10.29 37.26 0l62.77 62.77c10.29 10.29 10.29 26.97 0 37.26-5.14 5.15-11.88 7.72-18.63 7.72zM512 205.48c-14.55 0-26.35-11.8-26.35-26.35V90.35C485.65 75.8 497.45 64 512 64s26.35 11.8 26.35 26.35v88.77c0.01 14.56-11.79 26.36-26.35 26.36z" fill="#333333" p-id="1923"></path><path d="M512 205.48c-14.55 0-26.35-11.8-26.35-26.35V90.35C485.65 75.8 497.45 64 512 64s26.35 11.8 26.35 26.35v88.77c0.01 14.56-11.79 26.36-26.35 26.36zM911.45 516.16h-88.76c-14.55 0-26.35-11.8-26.35-26.35s11.8-26.35 26.35-26.35h88.76c14.55 0 26.35 11.8 26.35 26.35s-11.79 26.35-26.35 26.35zM731.69 296.48c-6.74 0-13.49-2.57-18.63-7.72-5.15-5.15-7.72-11.89-7.72-18.63s2.57-13.49 7.72-18.63l62.77-62.77c10.29-10.29 26.97-10.29 37.26 0 5.15 5.15 7.72 11.89 7.72 18.63s-2.57 13.49-7.72 18.63l-62.77 62.77c-5.14 5.15-11.88 7.72-18.63 7.72z" fill="#333333" p-id="1924"></path><path d="M911.45 516.16h-88.76c-14.55 0-26.35-11.8-26.35-26.35s11.8-26.35 26.35-26.35h88.76c14.55 0 26.35 11.8 26.35 26.35s-11.79 26.35-26.35 26.35zM201.31 516.16h-88.77c-14.55 0-26.35-11.8-26.35-26.35s11.8-26.35 26.35-26.35h88.77c14.55 0 26.35 11.8 26.35 26.35s-11.79 26.35-26.35 26.35z" fill="#333333" p-id="1925"></path></svg>